<?xml version="1.0" standalone="no"?>
<!DOCTYPE svg PUBLIC "-//W3C//DTD SVG 20010904//EN"
 "http://www.w3.org/TR/2001/REC-SVG-20010904/DTD/svg10.dtd">
<svg version="1.0" xmlns="http://www.w3.org/2000/svg"
 width="500.000000pt" height="500.000000pt" viewBox="0 0 500.000000 500.000000"
 preserveAspectRatio="xMidYMid meet">

<g transform="translate(0.000000,500.000000) scale(0.100000,-0.100000)"
fill="#000000" stroke="none">
<path d="M1816 4041 c-3 -5 2 -15 12 -22 15 -12 16 -12 5 2 -7 9 -10 19 -6 22
3 4 4 7 0 7 -3 0 -8 -4 -11 -9z"/>
<path d="M1758 3999 c-37 -30 -42 -59 -9 -59 14 1 14 2 -2 11 -14 8 -16 14 -6
25 6 8 16 14 21 14 6 0 5 -7 -2 -15 -9 -10 -9 -15 -1 -15 10 0 15 14 12 34 -1
5 4 6 11 3 9 -3 14 3 14 14 0 11 0 19 -1 19 0 -1 -17 -14 -37 -31z"/>
<path d="M1810 4006 c0 -2 8 -10 18 -17 15 -13 16 -12 3 4 -13 16 -21 21 -21
13z"/>
<path d="M1705 3920 c-8 -13 5 -13 25 0 13 8 13 10 -2 10 -9 0 -20 -4 -23 -10z"/>
<path d="M1619 3868 c-19 -23 -41 -49 -50 -57 -23 -24 -72 -91 -66 -91 4 0 -5
-11 -19 -25 -15 -15 -23 -32 -20 -41 3 -8 2 -13 -3 -10 -13 9 -94 -155 -129
-259 -48 -143 -64 -251 -63 -415 1 -80 7 -176 15 -215 l14 -70 1 65 c3 176 70
445 142 568 11 19 16 38 13 44 -4 6 -2 8 4 4 6 -3 13 3 17 14 3 11 31 54 62
97 30 42 47 71 37 63 -11 -8 5 8 35 37 31 30 50 56 46 63 -4 6 -1 17 5 25 15
18 34 20 24 3 -4 -7 2 -4 13 7 12 11 20 25 19 30 0 6 6 10 16 10 9 0 28 13 44
28 21 22 23 26 8 22 -18 -6 -18 -6 -1 8 16 13 16 15 2 21 -9 3 -13 2 -10 -3 3
-5 1 -12 -5 -16 -6 -4 -8 -10 -5 -15 3 -5 -9 -17 -27 -27 -31 -16 -37 -18 -55
-22 -5 -1 -1 -6 7 -11 17 -11 1 -13 -24 -4 -25 10 -19 22 14 29 31 7 38 23 19
42 -7 7 -7 13 -1 17 6 4 7 21 1 47 -5 22 -6 45 -3 51 4 6 1 9 -7 6 -8 -3 -14
-14 -13 -25 0 -11 -8 -26 -18 -32 -11 -7 -18 -7 -18 -1 0 5 4 10 9 10 10 0 21
59 11 65 -4 2 -22 -15 -41 -37z m11 -23 c-10 -12 -10 -18 1 -32 12 -15 12 -16
-4 -10 -10 4 -30 0 -45 -9 l-27 -16 28 22 c15 12 27 26 27 31 0 12 23 39 29
33 2 -2 -2 -10 -9 -19z m-65 -85 c9 8 14 6 19 -5 3 -9 10 -13 16 -10 5 3 10 2
10 -4 0 -18 -20 -23 -26 -6 -4 8 -13 14 -22 13 -8 -2 -16 3 -18 10 -1 7 0 8 3
2 3 -8 9 -8 18 0z m55 -79 c0 -6 -4 -13 -10 -16 -5 -3 -10 1 -10 9 0 9 5 16
10 16 6 0 10 -4 10 -9z m5 -61 c3 -5 2 -10 -4 -10 -5 0 -13 5 -16 10 -3 6 -2
10 4 10 5 0 13 -4 16 -10z"/>
<path d="M1710 3890 c0 -13 11 -13 30 0 12 8 11 10 -7 10 -13 0 -23 -4 -23
-10z"/>
<path d="M1849 3803 c-13 -16 -12 -17 4 -4 9 7 17 15 17 17 0 8 -8 3 -21 -13z"/>
<path d="M3188 3378 c-32 -11 -58 -25 -58 -32 0 -7 -16 -20 -36 -30 -46 -21
-39 -31 8 -12 20 9 38 13 41 10 9 -9 116 28 121 42 2 7 -1 19 -7 27 -11 13
-19 12 -69 -5z"/>
<path d="M3377 3336 c-6 -14 76 -99 106 -110 15 -5 17 -13 12 -53 -5 -35 -4
-44 4 -33 13 19 14 90 1 90 -5 0 -7 7 -3 16 4 10 -9 31 -38 60 -44 45 -73 55
-82 30z"/>
<path d="M3468 3109 c-9 -5 -26 -28 -37 -52 -30 -62 -82 -119 -143 -158 -29
-19 -54 -37 -56 -41 -2 -4 -9 -5 -16 -2 -7 3 -13 -2 -13 -11 0 -8 5 -15 11
-15 6 0 4 -5 -4 -10 -31 -20 4 -9 65 20 79 38 155 109 189 178 30 60 32 107 4
91z"/>
<path d="M2600 3010 c0 -5 -16 -24 -37 -42 -20 -18 -50 -47 -67 -63 -17 -17
-58 -48 -91 -70 -33 -21 -62 -40 -64 -42 -2 -2 -1 -6 2 -9 4 -4 13 -1 22 6 10
8 15 9 15 1 0 -6 -5 -11 -11 -11 -5 0 -7 -5 -3 -11 4 -7 -1 -7 -16 1 -17 9
-25 9 -34 -1 -6 -6 -6 -9 -1 -6 6 3 17 2 25 -3 20 -13 -29 -31 -51 -19 -14 7
-17 -1 -22 -59 -6 -82 0 -161 15 -179 7 -9 40 -13 109 -13 87 0 99 2 109 19 5
11 10 76 10 145 l0 125 138 3 137 3 0 109 c0 91 -3 111 -17 119 -13 9 -21 6
-36 -13 -13 -16 -21 -20 -26 -12 -4 7 -1 12 9 12 9 0 13 5 10 10 -8 13 -125
13 -125 0z m-15 -57 c-11 -3 -23 -10 -27 -17 -5 -7 -8 -7 -8 0 0 16 11 24 34
23 20 -1 20 -1 1 -6z m-55 -48 c0 -8 -4 -15 -10 -15 -5 0 -10 7 -10 15 0 8 5
15 10 15 6 0 10 -7 10 -15z m-10 -77 c0 -4 -8 -12 -18 -17 -14 -7 -18 -6 -18
9 0 12 7 18 18 17 10 -1 18 -5 18 -9z"/>
<path d="M2975 2732 c-135 -174 -220 -315 -274 -456 -27 -71 -104 -200 -113
-191 -3 3 -13 -4 -23 -15 -10 -11 -15 -23 -11 -28 9 -8 78 66 111 118 12 19
32 62 45 95 58 149 170 331 289 472 64 76 69 83 49 82 -7 0 -40 -35 -73 -77z"/>
<path d="M1870 2590 c-6 -12 -10 -38 -8 -58 2 -30 10 -41 41 -61 20 -14 37
-32 37 -43 0 -11 7 -18 18 -18 30 0 44 15 37 42 -4 16 -1 29 9 37 25 21 19 60
-13 92 -37 37 -104 42 -121 9z"/>
<path d="M2514 2026 c-10 -8 -16 -17 -13 -20 3 -3 14 1 25 8 10 8 16 17 13 20
-3 3 -14 -1 -25 -8z"/>
<path d="M2470 2000 c-13 -8 -12 -10 3 -10 9 0 17 5 17 10 0 12 -1 12 -20 0z"/>
<path d="M1605 1970 c10 -11 20 -20 23 -20 3 0 -3 9 -13 20 -10 11 -20 20 -23
20 -3 0 3 -9 13 -20z"/>
<path d="M3460 1758 c-117 -85 -316 -169 -494 -209 -115 -26 -336 -36 -471
-20 -86 9 -200 33 -270 56 -15 5 -13 2 5 -10 18 -12 19 -14 5 -10 -11 4 -28
10 -38 13 -14 4 -16 7 -5 13 9 6 6 8 -9 6 -12 0 -19 -5 -17 -9 3 -4 -1 -8 -8
-9 -7 0 -4 -4 7 -9 l20 -9 -20 0 c-11 0 -27 3 -35 9 -12 8 -12 10 2 15 23 9
12 32 -22 43 -24 9 -28 8 -26 -6 2 -9 14 -20 27 -24 19 -6 16 -7 -11 -4 -34 3
-34 3 -12 -12 26 -17 29 -32 6 -32 -9 0 -12 5 -8 12 4 7 3 8 -5 4 -6 -4 -8
-12 -5 -18 5 -7 1 -9 -9 -5 -29 11 -28 -10 1 -22 22 -9 35 -9 56 0 21 10 29
10 39 -1 9 -10 9 -11 0 -6 -7 4 -21 3 -30 -3 -16 -8 -14 -10 10 -16 15 -4 34
-4 42 -1 9 3 14 2 11 -3 -7 -11 89 -35 110 -27 8 3 13 2 9 -3 -17 -29 367 -34
508 -7 237 45 500 169 662 310 52 46 43 44 -25 -6z m-1343 -144 c-3 -3 -12 -4
-19 -1 -8 3 -5 6 6 6 11 1 17 -2 13 -5z m31 -63 c10 -6 1 -11 -27 -18 -23 -6
-38 -7 -35 -2 3 5 14 9 25 9 11 0 17 5 14 10 -7 12 5 13 23 1z m179 -16 c0 -8
-4 -12 -9 -9 -5 3 -6 10 -3 15 9 13 12 11 12 -6z m90 -41 c-3 -3 -12 -4 -19
-1 -8 3 -5 6 6 6 11 1 17 -2 13 -5z m-164 -11 c-7 -2 -19 -2 -25 0 -7 3 -2 5
12 5 14 0 19 -2 13 -5z m230 -30 c-7 -2 -21 -2 -30 0 -10 3 -4 5 12 5 17 0 24
-2 18 -5z"/>
<path d="M1820 1671 c-8 -6 -18 -7 -24 -4 -5 3 -6 1 -2 -5 5 -9 13 -9 27 -2
10 6 19 13 19 15 0 7 -3 6 -20 -4z"/>
<path d="M1978 1673 c6 -2 18 -2 25 0 6 3 1 5 -13 5 -14 0 -19 -2 -12 -5z"/>
<path d="M2045 1639 c-9 -14 -2 -20 14 -10 8 6 9 11 3 15 -6 3 -14 1 -17 -5z"/>
<path d="M1875 1620 c-3 -6 1 -7 9 -4 18 7 21 14 7 14 -6 0 -13 -4 -16 -10z"/>
<path d="M1980 1620 c-9 -6 -10 -10 -3 -10 6 0 15 5 18 10 8 12 4 12 -15 0z"/>
<path d="M2015 1600 c-3 -5 -1 -10 4 -10 6 0 11 5 11 10 0 6 -2 10 -4 10 -3 0
-8 -4 -11 -10z"/>
<path d="M1926 1585 c10 -8 24 -14 29 -14 6 0 1 6 -9 14 -11 8 -24 15 -30 15
-5 0 -1 -7 10 -15z"/>
<path d="M1970 1586 c7 -7 13 -7 20 0 6 6 3 10 -10 10 -13 0 -16 -4 -10 -10z"/>
<path d="M1996 1563 c-4 -9 -4 -14 0 -10 4 4 14 1 23 -6 14 -11 15 -10 1 8 -8
11 -15 21 -16 23 -1 2 -5 -5 -8 -15z"/>
<path d="M2040 1570 c0 -5 4 -10 9 -10 6 0 13 5 16 10 3 6 -1 10 -9 10 -9 0
-16 -4 -16 -10z"/>
<path d="M1010 1061 l0 -151 28 0 c27 0 27 1 27 62 l0 63 68 3 67 3 0 -66 c0
-64 0 -65 28 -65 l27 0 -3 150 -3 150 -25 0 c-23 0 -24 -3 -24 -65 l0 -66 -67
3 -68 3 0 60 c0 58 -1 60 -27 63 l-28 3 0 -150z"/>
<path d="M1349 1203 c0 -5 -1 -72 -2 -150 l-2 -143 83 0 c75 0 82 2 82 20 0
18 -7 20 -55 20 l-55 0 0 45 0 45 55 0 c48 0 55 3 55 19 0 17 -8 20 -52 23
l-53 3 -3 38 -3 37 55 0 c52 0 56 2 56 24 0 23 -3 24 -80 25 -44 1 -80 -2 -81
-6z"/>
<path d="M1661 1200 c-8 -5 -101 -269 -101 -287 0 -7 10 -9 27 -4 20 5 30 17
37 39 9 32 10 32 71 32 62 0 62 0 71 -32 8 -26 16 -34 37 -36 15 -2 27 1 27 6
0 8 -73 220 -95 275 -7 16 -53 21 -74 7z m63 -109 c9 -30 16 -58 16 -63 0 -11
-77 -10 -84 1 -3 5 1 30 10 57 9 27 18 55 20 63 7 22 21 2 38 -58z"/>
<path d="M1890 1061 l0 -151 90 0 c83 0 90 2 90 20 0 16 -8 19 -61 22 l-61 3
-1 125 -2 125 -27 3 -28 3 0 -150z"/>
<path d="M2110 1185 c0 -22 4 -25 40 -25 l40 0 0 -128 0 -128 28 2 27 1 3 126
3 127 39 0 c36 0 40 3 40 25 l0 25 -110 0 -110 0 0 -25z"/>
<path d="M2390 1055 l0 -152 29 5 c28 4 29 5 27 65 l-1 62 68 3 67 3 0 -66 c0
-63 1 -65 25 -65 l25 0 0 150 0 150 -25 0 c-24 0 -25 -2 -25 -65 l0 -66 -66 3
-67 3 -1 60 c-1 58 -2 60 -28 61 l-28 1 0 -152z"/>
<path d="M2840 1061 c0 -88 4 -151 10 -153 5 -2 43 -2 85 0 57 3 75 7 75 18 0
11 -15 14 -65 14 l-65 0 0 135 c0 128 -1 135 -20 135 -19 0 -20 -7 -20 -149z"/>
<path d="M3132 1193 c-45 -22 -66 -65 -66 -138 -1 -71 22 -117 70 -140 69 -33
155 -7 186 55 22 42 23 118 4 165 -28 67 -120 95 -194 58z m113 -23 c75 -28
72 -198 -4 -230 -73 -30 -136 23 -135 115 2 97 60 145 139 115z"/>
<path d="M3480 1191 c-48 -25 -72 -69 -72 -134 -1 -121 78 -177 211 -151 l31
7 0 74 0 74 -52 -3 c-58 -3 -72 -21 -20 -26 31 -3 32 -5 32 -47 0 -46 -10 -55
-56 -55 -37 0 -78 25 -92 55 -7 14 -12 48 -12 75 0 41 5 56 29 82 28 31 33 33
95 32 43 -1 67 3 70 11 11 29 -114 33 -164 6z"/>
<path d="M3793 1195 c-44 -19 -67 -67 -67 -140 0 -74 21 -116 68 -139 71 -33
157 -9 188 54 25 48 24 136 -2 177 -35 59 -115 79 -187 48z m112 -25 c71 -27
73 -190 3 -226 -88 -45 -168 44 -139 154 19 68 72 96 136 72z"/>
</g>
</svg>
